<mxfile host="app.diagrams.net" modified="2024-06-23T17:05:19.910Z" agent="Mozilla/5.0 (Windows NT 10.0; Win64; x64) AppleWebKit/537.36 (KHTML, like Gecko) Chrome/126.0.0.0 Safari/537.36" etag="zGaJSTytGePCCDo6qMu1" version="24.6.2" type="github">
  <diagram name="Trang-1" id="H_r4qNMvlrrulFxureWI">
    <mxGraphModel dx="1474" dy="697" grid="1" gridSize="10" guides="1" tooltips="1" connect="1" arrows="1" fold="1" page="1" pageScale="1" pageWidth="827" pageHeight="1169" math="0" shadow="0">
      <root>
        <mxCell id="0" />
        <mxCell id="1" parent="0" />
        <mxCell id="SlMsK9wnepzmydgbSHyS-1" value="" style="rounded=0;whiteSpace=wrap;html=1;" parent="1" vertex="1">
          <mxGeometry x="250" y="190" width="370" height="300" as="geometry" />
        </mxCell>
        <mxCell id="SlMsK9wnepzmydgbSHyS-2" value="" style="endArrow=classic;html=1;rounded=0;entryX=-0.006;entryY=0.804;entryDx=0;entryDy=0;entryPerimeter=0;" parent="1" edge="1">
          <mxGeometry width="50" height="50" relative="1" as="geometry">
            <mxPoint x="121.25" y="300" as="sourcePoint" />
            <mxPoint x="251.25000000000006" y="300.0000000000001" as="targetPoint" />
          </mxGeometry>
        </mxCell>
        <mxCell id="SlMsK9wnepzmydgbSHyS-4" value="" style="endArrow=classic;html=1;rounded=0;" parent="1" edge="1">
          <mxGeometry width="50" height="50" relative="1" as="geometry">
            <mxPoint x="121.25" y="240.00000000000006" as="sourcePoint" />
            <mxPoint x="251.25" y="240.00000000000006" as="targetPoint" />
          </mxGeometry>
        </mxCell>
        <mxCell id="SlMsK9wnepzmydgbSHyS-13" value="&lt;h1 style=&quot;margin-top: 0px;&quot;&gt;Memory Handler&lt;/h1&gt;&lt;div&gt;&lt;br&gt;&lt;/div&gt;&lt;div&gt;If (en_read = 1 &amp;amp;&amp;amp; en_write = 0)&amp;nbsp;&lt;/div&gt;&lt;div&gt;&lt;span style=&quot;white-space: pre;&quot;&gt;&#x9;&lt;/span&gt;&lt;span style=&quot;text-align: center; background-color: initial;&quot;&gt;If Load Byte (unsigned)&lt;/span&gt;&lt;/div&gt;&lt;div&gt;&lt;span style=&quot;background-color: initial; text-align: center;&quot;&gt;&amp;nbsp; &amp;nbsp; &amp;nbsp; &amp;nbsp; If Load Byte (signed)&lt;/span&gt;&lt;/div&gt;&lt;div&gt;&lt;span style=&quot;background-color: initial; text-align: center;&quot;&gt;&amp;nbsp; &amp;nbsp; &amp;nbsp; &amp;nbsp; If Load Halfwood (unsigned)&lt;/span&gt;&lt;/div&gt;&lt;div&gt;&lt;span style=&quot;background-color: initial; text-align: center;&quot;&gt;&amp;nbsp; &amp;nbsp; &amp;nbsp; &amp;nbsp; if Load Halfwood (unsigned)&lt;/span&gt;&lt;/div&gt;&lt;div&gt;&lt;span style=&quot;background-color: initial;&quot;&gt;&lt;br&gt;&lt;/span&gt;&lt;/div&gt;&lt;div&gt;&lt;span style=&quot;background-color: initial;&quot;&gt;If (en_write = 1 &amp;amp;&amp;amp; en_read = 0)&lt;/span&gt;&lt;/div&gt;&lt;div&gt;&lt;span style=&quot;white-space: pre;&quot;&gt;&#x9;&lt;/span&gt;Case:&amp;nbsp;&lt;/div&gt;&lt;div&gt;&lt;span style=&quot;white-space: pre;&quot;&gt;&#x9;&lt;/span&gt;(Store Byte)&lt;br&gt;&lt;/div&gt;&lt;div&gt;&lt;br&gt;&lt;/div&gt;&lt;div&gt;&lt;span style=&quot;white-space: pre;&quot;&gt;&#x9;&lt;/span&gt;Case:&amp;nbsp;&lt;br&gt;&lt;/div&gt;&lt;div&gt;&lt;span style=&quot;white-space: pre;&quot;&gt;&#x9;&lt;/span&gt;(Store Halfword)&lt;br&gt;&lt;/div&gt;&lt;div&gt;&lt;br&gt;&lt;/div&gt;" style="text;html=1;whiteSpace=wrap;overflow=hidden;rounded=0;" parent="1" vertex="1">
          <mxGeometry x="345" y="205" width="260" height="265" as="geometry" />
        </mxCell>
        <mxCell id="nYYsBkUTJJwEVYlqWwGL-1" value="" style="endArrow=classic;html=1;rounded=0;entryX=0.74;entryY=1.002;entryDx=0;entryDy=0;entryPerimeter=0;" parent="1" target="SlMsK9wnepzmydgbSHyS-1" edge="1">
          <mxGeometry width="50" height="50" relative="1" as="geometry">
            <mxPoint x="523.53" y="585" as="sourcePoint" />
            <mxPoint x="526.48" y="490" as="targetPoint" />
          </mxGeometry>
        </mxCell>
        <mxCell id="jUcvrwmncfX_A79w_pjN-4" value="" style="rounded=0;whiteSpace=wrap;html=1;" parent="1" vertex="1">
          <mxGeometry x="440" y="585" width="170" height="125" as="geometry" />
        </mxCell>
        <mxCell id="jUcvrwmncfX_A79w_pjN-5" value="&lt;font style=&quot;font-size: 24px;&quot;&gt;&lt;b&gt;ALU&lt;/b&gt;&lt;/font&gt;" style="text;html=1;align=center;verticalAlign=middle;whiteSpace=wrap;rounded=0;" parent="1" vertex="1">
          <mxGeometry x="465" y="620" width="120" height="30" as="geometry" />
        </mxCell>
        <mxCell id="jUcvrwmncfX_A79w_pjN-11" value="addr [31:0]" style="text;html=1;align=center;verticalAlign=middle;whiteSpace=wrap;rounded=0;" parent="1" vertex="1">
          <mxGeometry x="455" y="530" width="60" height="30" as="geometry" />
        </mxCell>
        <mxCell id="9XSBs2TKCVLQOdmKnw2v-7" value="&lt;font style=&quot;font-size: 14px;&quot;&gt;size&lt;/font&gt;&amp;nbsp;[2:0]" style="text;html=1;align=center;verticalAlign=middle;resizable=0;points=[];autosize=1;strokeColor=none;fillColor=none;" parent="1" vertex="1">
          <mxGeometry x="151.25" y="205" width="80" height="30" as="geometry" />
        </mxCell>
        <mxCell id="9XSBs2TKCVLQOdmKnw2v-8" value="en_read" style="text;html=1;align=center;verticalAlign=middle;whiteSpace=wrap;rounded=0;" parent="1" vertex="1">
          <mxGeometry x="166.25" y="270" width="60" height="30" as="geometry" />
        </mxCell>
        <mxCell id="9XSBs2TKCVLQOdmKnw2v-9" value="" style="endArrow=classic;html=1;rounded=0;" parent="1" edge="1">
          <mxGeometry width="50" height="50" relative="1" as="geometry">
            <mxPoint x="121.25" y="368" as="sourcePoint" />
            <mxPoint x="251.25" y="368" as="targetPoint" />
          </mxGeometry>
        </mxCell>
        <mxCell id="9XSBs2TKCVLQOdmKnw2v-10" value="en_write" style="text;html=1;align=center;verticalAlign=middle;whiteSpace=wrap;rounded=0;" parent="1" vertex="1">
          <mxGeometry x="161.25" y="338" width="60" height="30" as="geometry" />
        </mxCell>
        <mxCell id="9XSBs2TKCVLQOdmKnw2v-11" value="" style="whiteSpace=wrap;html=1;aspect=fixed;" parent="1" vertex="1">
          <mxGeometry x="28.75" y="578.75" width="122.5" height="122.5" as="geometry" />
        </mxCell>
        <mxCell id="9XSBs2TKCVLQOdmKnw2v-12" value="" style="endArrow=classic;html=1;rounded=0;exitX=0.275;exitY=1.001;exitDx=0;exitDy=0;exitPerimeter=0;entryX=1;entryY=0.5;entryDx=0;entryDy=0;" parent="1" source="SlMsK9wnepzmydgbSHyS-1" target="9XSBs2TKCVLQOdmKnw2v-11" edge="1">
          <mxGeometry width="50" height="50" relative="1" as="geometry">
            <mxPoint x="350" y="500" as="sourcePoint" />
            <mxPoint x="300" y="580" as="targetPoint" />
            <Array as="points">
              <mxPoint x="350" y="640" />
            </Array>
          </mxGeometry>
        </mxCell>
        <mxCell id="9XSBs2TKCVLQOdmKnw2v-14" value="&lt;h1 style=&quot;margin-top: 0px;&quot;&gt;&lt;br&gt;&lt;/h1&gt;" style="text;html=1;whiteSpace=wrap;overflow=hidden;rounded=0;" parent="1" vertex="1">
          <mxGeometry x="200" y="540" width="180" height="120" as="geometry" />
        </mxCell>
        <mxCell id="9XSBs2TKCVLQOdmKnw2v-15" value="&lt;h1 style=&quot;margin-top: 0px;&quot;&gt;Register File&lt;/h1&gt;" style="text;html=1;whiteSpace=wrap;overflow=hidden;rounded=0;" parent="1" vertex="1">
          <mxGeometry x="40" y="600" width="100" height="80" as="geometry" />
        </mxCell>
        <mxCell id="9XSBs2TKCVLQOdmKnw2v-16" value="data_to_reg [31:0]" style="text;html=1;align=center;verticalAlign=middle;whiteSpace=wrap;rounded=0;" parent="1" vertex="1">
          <mxGeometry x="270" y="600" width="60" height="30" as="geometry" />
        </mxCell>
        <mxCell id="9XSBs2TKCVLQOdmKnw2v-19" value="" style="endArrow=classic;html=1;rounded=0;exitX=0.5;exitY=0;exitDx=0;exitDy=0;entryX=0;entryY=0.766;entryDx=0;entryDy=0;entryPerimeter=0;" parent="1" source="9XSBs2TKCVLQOdmKnw2v-11" target="SlMsK9wnepzmydgbSHyS-1" edge="1">
          <mxGeometry width="50" height="50" relative="1" as="geometry">
            <mxPoint x="90" y="570" as="sourcePoint" />
            <mxPoint x="130" y="460" as="targetPoint" />
            <Array as="points">
              <mxPoint x="90" y="420" />
            </Array>
          </mxGeometry>
        </mxCell>
        <mxCell id="9XSBs2TKCVLQOdmKnw2v-21" value="read_data_2 [31:0]" style="text;html=1;align=center;verticalAlign=middle;whiteSpace=wrap;rounded=0;" parent="1" vertex="1">
          <mxGeometry x="106.25" y="390" width="120" height="30" as="geometry" />
        </mxCell>
        <mxCell id="9XSBs2TKCVLQOdmKnw2v-23" value="" style="rounded=0;whiteSpace=wrap;html=1;" parent="1" vertex="1">
          <mxGeometry x="-50" y="220" width="170" height="160" as="geometry" />
        </mxCell>
        <mxCell id="9XSBs2TKCVLQOdmKnw2v-24" value="&lt;h1 style=&quot;margin-top: 0px;&quot;&gt;Control Unit&lt;/h1&gt;" style="text;html=1;whiteSpace=wrap;overflow=hidden;rounded=0;" parent="1" vertex="1">
          <mxGeometry x="-40" y="260" width="160" height="70" as="geometry" />
        </mxCell>
        <mxCell id="9XSBs2TKCVLQOdmKnw2v-25" value="" style="endArrow=classic;html=1;rounded=0;" parent="1" edge="1">
          <mxGeometry width="50" height="50" relative="1" as="geometry">
            <mxPoint x="620" y="270" as="sourcePoint" />
            <mxPoint x="790" y="270" as="targetPoint" />
          </mxGeometry>
        </mxCell>
        <mxCell id="9XSBs2TKCVLQOdmKnw2v-26" value="" style="endArrow=classic;html=1;rounded=0;" parent="1" edge="1">
          <mxGeometry width="50" height="50" relative="1" as="geometry">
            <mxPoint x="620" y="320.33" as="sourcePoint" />
            <mxPoint x="790" y="320" as="targetPoint" />
          </mxGeometry>
        </mxCell>
        <mxCell id="9XSBs2TKCVLQOdmKnw2v-27" value="" style="endArrow=classic;html=1;rounded=0;" parent="1" edge="1">
          <mxGeometry width="50" height="50" relative="1" as="geometry">
            <mxPoint x="620" y="368" as="sourcePoint" />
            <mxPoint x="790" y="368" as="targetPoint" />
          </mxGeometry>
        </mxCell>
        <mxCell id="9XSBs2TKCVLQOdmKnw2v-28" value="" style="endArrow=classic;html=1;rounded=0;" parent="1" edge="1">
          <mxGeometry width="50" height="50" relative="1" as="geometry">
            <mxPoint x="620" y="420" as="sourcePoint" />
            <mxPoint x="790" y="420" as="targetPoint" />
          </mxGeometry>
        </mxCell>
        <mxCell id="9XSBs2TKCVLQOdmKnw2v-29" value="" style="endArrow=classic;html=1;rounded=0;exitX=0;exitY=0.936;exitDx=0;exitDy=0;exitPerimeter=0;" parent="1" source="9XSBs2TKCVLQOdmKnw2v-30" edge="1">
          <mxGeometry width="50" height="50" relative="1" as="geometry">
            <mxPoint x="785.6800000000003" y="470.00000000000006" as="sourcePoint" />
            <mxPoint x="620" y="470.7" as="targetPoint" />
          </mxGeometry>
        </mxCell>
        <mxCell id="9XSBs2TKCVLQOdmKnw2v-30" value="" style="rounded=0;whiteSpace=wrap;html=1;" parent="1" vertex="1">
          <mxGeometry x="790" y="190" width="180" height="300" as="geometry" />
        </mxCell>
        <mxCell id="9XSBs2TKCVLQOdmKnw2v-32" value="&lt;h1 style=&quot;margin-top: 0px;&quot;&gt;Memory&lt;/h1&gt;" style="text;html=1;whiteSpace=wrap;overflow=hidden;rounded=0;" parent="1" vertex="1">
          <mxGeometry x="827" y="220" width="120" height="70" as="geometry" />
        </mxCell>
        <mxCell id="9XSBs2TKCVLQOdmKnw2v-33" value="mem_read" style="text;html=1;align=center;verticalAlign=middle;whiteSpace=wrap;rounded=0;" parent="1" vertex="1">
          <mxGeometry x="680" y="235" width="60" height="30" as="geometry" />
        </mxCell>
        <mxCell id="9XSBs2TKCVLQOdmKnw2v-34" value="mem_write" style="text;html=1;align=center;verticalAlign=middle;whiteSpace=wrap;rounded=0;" parent="1" vertex="1">
          <mxGeometry x="680" y="290" width="60" height="30" as="geometry" />
        </mxCell>
        <mxCell id="9XSBs2TKCVLQOdmKnw2v-35" value="" style="endArrow=classic;html=1;rounded=0;entryX=0;entryY=0.133;entryDx=0;entryDy=0;entryPerimeter=0;" parent="1" edge="1">
          <mxGeometry width="50" height="50" relative="1" as="geometry">
            <mxPoint x="620" y="220.1" as="sourcePoint" />
            <mxPoint x="790" y="219.99999999999997" as="targetPoint" />
          </mxGeometry>
        </mxCell>
        <mxCell id="9XSBs2TKCVLQOdmKnw2v-36" value="select [3:0]" style="text;html=1;align=center;verticalAlign=middle;whiteSpace=wrap;rounded=0;" parent="1" vertex="1">
          <mxGeometry x="670" y="190" width="80" height="30" as="geometry" />
        </mxCell>
        <mxCell id="9XSBs2TKCVLQOdmKnw2v-37" value="addr_to_mem [31:0]" style="text;html=1;align=center;verticalAlign=middle;whiteSpace=wrap;rounded=0;" parent="1" vertex="1">
          <mxGeometry x="645" y="338" width="130" height="30" as="geometry" />
        </mxCell>
        <mxCell id="9XSBs2TKCVLQOdmKnw2v-38" value="data_to_mem [31:0]" style="text;html=1;align=center;verticalAlign=middle;whiteSpace=wrap;rounded=0;" parent="1" vertex="1">
          <mxGeometry x="640" y="390" width="130" height="30" as="geometry" />
        </mxCell>
        <mxCell id="9XSBs2TKCVLQOdmKnw2v-39" value="data_from_mem&amp;nbsp;" style="text;html=1;align=center;verticalAlign=middle;whiteSpace=wrap;rounded=0;" parent="1" vertex="1">
          <mxGeometry x="680" y="440" width="60" height="30" as="geometry" />
        </mxCell>
        <mxCell id="9XSBs2TKCVLQOdmKnw2v-40" value="" style="rounded=0;whiteSpace=wrap;html=1;" parent="1" vertex="1">
          <mxGeometry x="820" y="272.5" width="120" height="25" as="geometry" />
        </mxCell>
        <mxCell id="9XSBs2TKCVLQOdmKnw2v-41" value="" style="rounded=0;whiteSpace=wrap;html=1;" parent="1" vertex="1">
          <mxGeometry x="820" y="310" width="120" height="30" as="geometry" />
        </mxCell>
        <mxCell id="9XSBs2TKCVLQOdmKnw2v-42" value="" style="rounded=0;whiteSpace=wrap;html=1;" parent="1" vertex="1">
          <mxGeometry x="820" y="360" width="120" height="30" as="geometry" />
        </mxCell>
      </root>
    </mxGraphModel>
  </diagram>
</mxfile>
